<svg width="600" height="450" viewBox="0 0 600 450" fill="none" xmlns="http://www.w3.org/2000/svg">
  <rect width="600" height="450" fill="#f1f5f9"/>
  <path d="M300 160c-44.2 0-80 35.8-80 80s35.8 80 80 80 80-35.8 80-80-35.8-80-80-80zm0 140c-33.1 0-60-26.9-60-60s26.9-60 60-60 60 26.9 60 60-26.9 60-60 60z" fill="#cbd5e1"/>
  <path d="M380 290c-14.7-11.2-33.3-18-53.3-20.3 8.1-6.7 13.3-16.7 13.3-27.7 0-20.3-16.4-36.7-36.7-36.7-12.4 0-23.3 6.1-29.8 15.4-6.5-9.3-17.4-15.4-29.8-15.4-20.3 0-36.7 16.4-36.7 36.7 0 11 5.2 21 13.3 27.7-20 2.3-38.6 9.1-53.3 20.3-15 11.5-24 28.7-25.3 47.3h230.6c-1.3-18.6-10.3-35.8-25.3-47.3z" fill="#cbd5e1"/>
</svg>
